<svg version="1.1" id="Capa_1" xmlns="http://www.w3.org/2000/svg"
  xmlns:xlink="http://www.w3.org/1999/xlink" width="64px" height="64px"
  viewBox="-20.22 -20.22 175.22 175.22" xml:space="preserve" stroke="#ffffff"
  stroke-width="13.477500000000001">

<g id="SVGRepo_bgCarrier" stroke-width="0"/>

<g id="SVGRepo_tracerCarrier" stroke-linecap="round" stroke-linejoin="round" stroke="#fff" stroke-width="15"> <g> <path d="M67.58,44.795c13.569,0,22.201-11.101,22.201-22.598C89.781,11.101,81.149,0,67.58,0C53.213,0,44.994,11.101,44.994,22.197 C44.994,33.694,53.213,44.795,67.58,44.795z"/> <path d="M67.58,134.775c13.569,0,22.201-11.101,22.201-22.602c0-11.101-8.632-22.193-22.201-22.193 c-14.367,0-22.586,11.093-22.586,22.193C44.994,123.675,53.213,134.775,67.58,134.775z"/> </g> </g>

<g id="SVGRepo_iconCarrier"> <g> <path d="M67.58,44.795c13.569,0,22.201-11.101,22.201-22.598C89.781,11.101,81.149,0,67.58,0C53.213,0,44.994,11.101,44.994,22.197 C44.994,33.694,53.213,44.795,67.58,44.795z"/> <path d="M67.58,134.775c13.569,0,22.201-11.101,22.201-22.602c0-11.101-8.632-22.193-22.201-22.193 c-14.367,0-22.586,11.093-22.586,22.193C44.994,123.675,53.213,134.775,67.58,134.775z"/> </g> </g>

</svg>